<svg width="91" height="24" viewBox="0 0 91 24" fill="none" xmlns="http://www.w3.org/2000/svg">
<g clip-path="url(#clip0_2693_73755)">
<mask id="mask0_2693_73755" style="mask-type:luminance" maskUnits="userSpaceOnUse" x="56" y="0" width="21" height="24">
<path d="M60.4171 1.2915L72.6296 0.0180934C74.724 -0.200024 76.4598 1.58586 76.1681 3.65092L73.6693 21.2415C73.3929 23.1897 71.4214 24.4328 69.5218 23.8596L57.9183 20.3433C56.7714 19.9981 56.0597 18.8821 56.2236 17.71L58.2717 3.34633C58.4252 2.25045 59.3161 1.40798 60.4171 1.2915Z" fill="white"/>
</mask>
<g mask="url(#mask0_2693_73755)">
<mask id="mask1_2693_73755" style="mask-type:luminance" maskUnits="userSpaceOnUse" x="55" y="-1" width="22" height="27">
<path d="M58.5216 1.48786L76.7845 -0.413086L73.1028 25.0079L55.9541 19.8479L58.5216 1.48786Z" fill="white"/>
</mask>
<g mask="url(#mask1_2693_73755)">
<path d="M76.7845 -0.413086L58.5216 1.48786L55.9541 19.8479L73.1028 25.0079L76.7845 -0.413086Z" fill="#00A160"/>
<path d="M63.1324 9.09351L64.8093 9.17927L60.6846 12.2237L60.8901 10.7675L63.1324 9.09351Z" fill="white"/>
<path d="M66.1433 17.3869L64.5044 17.0597L68.6242 14.0498L68.3812 15.7432L66.1433 17.3869Z" fill="white"/>
<path d="M67.2988 9.30697L68.0564 10.2832L61.1348 15.3804L60.3726 14.4373L60.6272 12.6317L65.2553 9.20215L67.2988 9.30697Z" fill="white"/>
<path d="M68.2628 10.4993L68.9937 11.4752L68.6923 13.5752L64.0689 16.9722L62.0714 16.5734L61.3145 15.5957L68.2628 10.4993Z" fill="white"/>
<path d="M65.8779 8.72114L68.2181 6.75879L72.0715 6.78102L69.7095 8.88138L65.8779 8.72114Z" fill="white"/>
<path d="M65.796 6.14415L66.247 5.7605L65.8797 8.33697L65.4316 8.70226L65.796 6.14415Z" fill="white"/>
</g>
</g>
<path d="M72.6543 0.266602C74.5885 0.0667786 76.1883 1.71602 75.9209 3.61426L73.4238 21.2061C73.1709 23.0013 71.353 24.1494 69.5977 23.6201L57.9893 20.1084C57.0274 19.8187 56.405 18.9209 56.4531 17.9443L56.4717 17.748L58.5205 3.38086V3.37988C58.6579 2.4028 59.4532 1.64438 60.4443 1.54004L72.6543 0.266602Z" stroke="#ECECEF" stroke-width="0.5" stroke-miterlimit="10"/>
<mask id="mask2_2693_73755" style="mask-type:luminance" maskUnits="userSpaceOnUse" x="42" y="0" width="21" height="24">
<path d="M46.4171 1.2915L58.6296 0.0180934C60.724 -0.200024 62.4598 1.58586 62.1681 3.65092L59.6693 21.2415C59.3929 23.1897 57.4214 24.4328 55.5218 23.8596L43.9183 20.3433C42.7714 19.9981 42.0597 18.8821 42.2236 17.71L44.2717 3.34633C44.4252 2.25045 45.3161 1.40798 46.4171 1.2915Z" fill="white"/>
</mask>
<g mask="url(#mask2_2693_73755)">
<mask id="mask3_2693_73755" style="mask-type:luminance" maskUnits="userSpaceOnUse" x="41" y="-1" width="22" height="27">
<path d="M44.5216 1.48786L62.7845 -0.413086L59.1028 25.0079L41.9541 19.8479L44.5216 1.48786Z" fill="white"/>
</mask>
<g mask="url(#mask3_2693_73755)">
<path d="M62.7845 -0.413086L44.5216 1.48786L41.9541 19.8479L59.1028 25.0079L62.7845 -0.413086Z" fill="#00AEEF"/>
<path d="M52.2612 10.8449C53.3569 10.9328 54.4326 9.86975 54.6385 8.43328C54.8443 6.99646 54.1077 5.86916 52.97 5.88046C51.8323 5.89175 50.7826 6.95657 50.5928 8.2921C50.4029 9.62763 51.1395 10.7553 52.2612 10.8449Z" fill="white"/>
<path d="M53.7878 10.4989C53.3468 10.9987 52.5992 11.4307 51.7397 11.353C51.0625 11.292 50.534 10.9277 50.2176 10.5557C48.0135 10.6553 46.3223 10.8642 46.3223 10.8642L46.1841 11.8436L57.7377 13.1206L58.0971 10.6288C58.0711 10.627 56.0849 10.4904 53.7878 10.4989Z" fill="white"/>
<path d="M47.1165 14.9522L46.9448 16.1656L45.6123 15.9044L46.059 12.7361L47.405 12.9101L47.196 14.39L47.2216 14.3942L48.2336 13.0174L49.8646 13.2281L48.4284 14.804L49.3278 16.6333L47.7648 16.3269L47.1422 14.9568L47.1165 14.9522Z" fill="white"/>
<path d="M57.0092 17.9923C56.6812 18.0742 56.2356 18.0594 55.8512 17.9835C54.5191 17.7206 53.6175 17.0256 53.8245 15.5835C54.0118 14.2755 55.0516 13.828 56.3723 13.9971C56.735 14.0433 57.1959 14.1386 57.5328 14.3631L57.338 15.7152C57.1107 15.4628 56.8472 15.2789 56.46 15.2214C55.9695 15.1487 55.4038 15.4162 55.3394 15.8641C55.2749 16.3116 55.7137 16.7422 56.2277 16.8329C56.5875 16.8965 56.8906 16.8047 57.2044 16.6402L57.0092 17.9923Z" fill="white"/>
<path d="M50.0971 13.2581L52.8413 13.6124C53.5661 13.7059 53.7467 14.103 53.6701 14.637C53.5839 15.2377 53.1031 15.4671 52.6607 15.429C53.1195 15.5374 53.548 15.6757 53.4425 16.4098C53.3756 16.8771 53.0731 17.3328 52.2788 17.1775L49.6138 16.6565L50.0971 13.2581ZM51.0724 16.2185L51.7656 16.3445C52.0224 16.3911 52.1438 16.2796 52.1716 16.0837C52.1994 15.8878 52.1456 15.7117 51.8628 15.6641L51.1682 15.5465L51.0724 16.2185ZM51.2548 14.9388L51.9248 15.0443C52.1827 15.0849 52.3041 14.9709 52.3323 14.775C52.3697 14.5142 52.2803 14.4012 52.022 14.3638L51.3246 14.2629L51.2548 14.9388Z" fill="white"/>
</g>
</g>
<path d="M58.6543 0.266602C60.5885 0.0667786 62.1883 1.71602 61.9209 3.61426L59.4238 21.2061C59.1709 23.0013 57.353 24.1494 55.5977 23.6201L43.9893 20.1084C43.0274 19.8187 42.405 18.9209 42.4531 17.9443L42.4717 17.748L44.5205 3.38086V3.37988C44.6579 2.4028 45.4532 1.64438 46.4443 1.54004L58.6543 0.266602Z" stroke="#ECECEF" stroke-width="0.5" stroke-miterlimit="10"/>
<mask id="mask4_2693_73755" style="mask-type:luminance" maskUnits="userSpaceOnUse" x="28" y="0" width="21" height="24">
<path d="M32.4171 1.2915L44.6296 0.0180934C46.724 -0.200024 48.4598 1.58586 48.1681 3.65092L45.6693 21.2415C45.3929 23.1897 43.4214 24.4328 41.5218 23.8596L29.9183 20.3433C28.7714 19.9981 28.0597 18.8821 28.2236 17.71L30.2717 3.34633C30.4252 2.25045 31.3161 1.40798 32.4171 1.2915Z" fill="white"/>
</mask>
<g mask="url(#mask4_2693_73755)">
<mask id="mask5_2693_73755" style="mask-type:luminance" maskUnits="userSpaceOnUse" x="27" y="-1" width="22" height="27">
<path d="M30.5216 1.48984L48.7844 -0.413574L45.1081 25.007L27.958 19.8498L30.5216 1.48984Z" fill="white"/>
</mask>
<g mask="url(#mask5_2693_73755)">
<path d="M48.7844 -0.413574L30.5216 1.48984L27.958 19.8498L45.1085 25.007L48.7844 -0.413574Z" fill="white"/>
<path d="M45.1084 25.007C43.6455 24.5672 42.1576 24.1197 40.6695 23.6722C41.2087 23.214 41.2333 22.4937 41.207 21.7617C40.9939 21.7776 40.8116 21.7649 40.6192 21.821C40.351 21.8559 40.2552 21.9727 40.2011 22.35C40.1911 22.4185 40.1765 22.5216 40.1918 22.5975C40.1726 22.9137 40.179 23.2377 40.1597 23.5546C39.9328 23.4862 39.7815 23.4406 39.5798 23.3799C39.6083 22.998 39.6415 22.5826 39.6447 22.1944C39.6486 21.9837 39.562 21.8538 39.4448 21.7515C39.3024 21.6424 39.135 21.527 38.9875 21.4525C38.8197 21.3378 38.6138 21.4899 38.6153 21.6636C38.6338 22.085 38.6174 22.5671 38.8268 22.943C38.8472 22.9839 38.8831 23.1 38.8988 23.1749C37.3351 22.7037 35.7718 22.2325 34.2081 21.7613C34.4788 21.5206 34.7545 21.2457 35.022 21.0304C35.1705 20.9097 35.2346 20.8299 35.1345 20.6076C35.0928 20.5313 35.0807 20.4307 35.0686 20.3305C35.0355 20.1925 34.9938 20.1166 34.8581 20.1452C34.456 20.1982 34.0542 20.2486 33.678 20.3037C33.6527 20.2966 33.6485 20.327 33.6232 20.3199C33.719 20.7572 33.8145 21.197 33.9053 21.6699C33.8045 21.6396 33.7286 21.6166 33.6784 21.6015C31.8415 21.0173 30.0256 20.4713 28.2097 19.9253C28.1342 19.9028 28.033 19.8724 27.9575 19.8495C28.8095 13.7475 29.669 7.59146 30.5211 1.48946C36.5906 0.856634 42.7144 0.218517 48.784 -0.414307C48.7676 -0.302071 48.7409 -0.115366 48.7245 -0.00313026C47.9515 5.34287 47.1836 10.6511 46.4106 15.9971C46.3942 16.1093 46.3836 16.1842 46.3675 16.296C45.8022 15.8291 45.1629 15.509 44.5021 15.3382C44.4761 15.3343 44.4092 15.251 44.4198 15.1786C44.4252 15.1426 44.4872 15.0773 44.5182 15.0449C44.8961 14.8006 45.1404 14.3873 45.3385 13.9282C45.4692 13.5713 45.6412 13.2925 45.8656 13.0179C46.0954 12.7049 46.2322 12.3057 46.3333 11.7904C46.1349 11.8857 45.9939 11.9478 45.8478 12.0466C45.9476 11.7205 46.0163 11.4286 46.1164 11.1015C46.2272 10.7002 46.3903 10.3013 46.4751 9.89687C46.5385 9.63993 46.5862 9.49346 46.7857 9.3911C47.0169 9.25204 47.2331 9.03675 47.3079 8.70216C47.3934 8.29275 47.4792 7.88299 47.5594 7.51028C47.741 6.80122 47.6901 6.2411 47.4215 5.72263C47.3371 5.57546 47.279 5.42863 47.1946 5.28252C47.0094 4.91863 46.7177 4.74322 46.3408 4.78946C46.1022 4.79581 45.8845 4.83746 45.6569 4.95075C45.1272 5.14134 44.817 5.64463 44.6403 6.32122C44.5883 6.4991 44.573 6.60569 44.3881 6.60499C43.8286 6.63852 43.254 6.77581 42.7197 7.18734C42.6884 7.22157 42.6093 7.22052 42.5879 7.18558C42.1263 6.90605 41.6276 6.69887 41.0638 6.76346C40.9583 6.76275 40.9412 6.69569 40.9028 6.59546C40.8354 6.32828 40.7678 6.06216 40.6374 5.86416C40.3499 5.47169 39.9638 5.21687 39.4958 5.16216C39.2354 5.13569 38.9839 5.04534 38.6958 5.21228C38.523 5.31146 38.377 5.40993 38.2263 5.53946C38.107 5.63652 38.0094 5.76428 37.9385 5.89134C37.8014 6.11334 37.686 6.36605 37.5973 6.6184C37.5132 6.83863 37.4291 7.05816 37.4241 7.27875C37.4398 7.91087 37.5342 8.54828 38.1059 8.79569C38.1323 8.79675 38.18 8.83099 38.2017 8.86416C38.3239 8.93404 38.3317 9.06393 38.2826 9.2231C38.1401 9.66816 38.0714 10.1492 38.086 10.6042C38.0924 10.9296 38.0728 11.2532 38.0742 11.6122C37.9748 11.5702 37.8797 11.4964 37.806 11.4572C37.7063 11.4156 37.6236 11.4406 37.6272 11.6026C37.6507 11.9937 37.7045 12.3569 37.8922 12.7038C38.1056 13.0568 38.2619 13.4386 38.4439 13.8269C38.4863 13.8989 38.4984 14.0005 38.5102 14.1018C38.5173 14.2359 38.4821 14.2977 38.3531 14.2793C38.2498 14.2645 38.1675 14.286 38.0642 14.2712C37.2329 14.1851 36.456 14.4593 35.6717 14.7851C35.6157 14.808 35.5555 14.8617 35.5466 14.9238C35.5203 15.1098 35.5238 15.2693 35.5189 15.4906C35.7678 15.4059 35.9612 15.3431 36.1807 15.2835C36.8435 15.0689 37.5196 14.9478 38.1946 15.0202C38.2979 15.0364 38.3446 15.077 38.3777 15.2157C38.4176 15.4896 38.3827 15.551 38.1579 15.647C37.3732 15.9763 36.5857 16.325 35.8049 16.6299C35.7493 16.6511 35.6635 16.6987 35.6588 16.7298C35.6578 16.9222 35.5712 17.1615 35.7027 17.3496C35.7839 17.334 35.8441 17.2822 35.9253 17.2666C36.6797 16.9631 37.4566 16.6853 38.2145 16.3589C38.5508 16.2173 38.6958 16.3105 38.8539 16.6779C38.9747 16.9384 39.0726 16.991 39.3017 16.8632C39.7298 16.6327 40.1697 16.5039 40.6214 16.4792C40.9444 16.4305 41.1699 16.3285 41.2907 15.8556C41.3658 15.5157 41.3964 15.485 41.2198 15.2471C41.0427 15.0106 40.927 14.7149 41.0324 14.3468C41.0374 14.3125 41.0164 14.2751 41.0164 14.2751C40.9031 14.3291 40.7898 14.3831 40.6816 14.4025C40.6249 14.4293 40.5266 14.381 40.4846 14.3062C40.3421 14.0118 40.4874 13.5495 40.787 13.4831C41.5361 13.2255 42.2314 13.3416 42.8811 13.775C43.0474 13.9031 43.1361 14.202 43.0179 14.4742C42.8996 14.7456 42.812 14.8052 42.5737 14.6288C42.4804 14.5444 42.4237 14.5723 42.3984 14.7473C42.3222 15.0932 42.1584 15.3184 41.9062 15.4222C41.7623 15.5065 41.7217 15.6064 41.7224 15.7836C41.7281 15.9265 41.7598 16.0733 41.7398 16.2124C41.7099 16.4206 41.7772 16.5032 41.9265 16.5646C42.3742 16.7499 42.7243 17.0644 43.0278 17.5197C43.0894 17.6407 43.1817 17.7315 43.2743 17.8222C43.3666 17.9132 43.4435 17.928 43.5105 17.8299C43.6081 17.7008 43.7317 17.5762 43.8293 17.4463C43.8962 17.3475 43.9529 17.3206 44.0451 17.4113C44.6239 17.9655 45.2473 18.5757 45.8233 19.1489C45.9148 19.2445 45.9241 19.3617 45.9027 19.5113M42.1997 3.81569C42.376 3.87534 42.5527 3.93569 42.7336 3.96216C42.8351 3.99216 42.8569 4.02534 42.8369 4.16263C42.7974 4.43722 42.7845 4.7111 42.7717 4.98534C42.7589 5.25958 42.7853 5.25922 43.0122 5.15158C43.3502 5.00581 43.6882 4.85899 44.022 4.74534C44.3557 4.63063 44.62 4.44675 44.8996 4.15487C45.0581 3.97205 45.1903 3.78958 45.3702 3.63958C45.5187 3.52628 45.7257 3.37381 45.8852 3.36605C46.2528 3.38405 46.6044 3.51181 46.9132 3.75252C47.2377 4.06875 47.6149 4.01793 47.9505 3.70875C48.1371 3.51534 48.1909 3.14193 48.0317 2.9651C47.5362 2.55216 47.061 2.18158 46.5577 1.81981C46.4242 1.82969 46.3387 1.87169 46.2429 1.98569C46.0249 2.2151 45.8069 2.44275 45.5675 2.63546C45.477 2.71169 45.3705 2.71805 45.2587 2.76005C45.2526 2.61922 45.2412 2.51405 45.2615 2.37181C45.2872 2.19393 45.3712 1.97652 45.3331 1.87381C45.295 1.7711 45.1027 1.82052 45.0012 1.79299C45.0012 1.79299 45.0012 1.79299 44.9744 1.7951C44.8024 1.70334 44.734 1.8131 44.6717 2.06158C44.536 2.45405 44.4003 2.84581 44.2115 3.23899C44.0914 3.5231 43.8898 3.63675 43.6772 3.64663C43.6287 3.06287 43.9386 2.56205 44.1523 1.99487C44.0405 2.03758 43.9871 2.04146 43.9069 2.0471C43.5497 2.14134 43.1778 2.33793 42.8497 2.59734C42.7016 2.70816 42.5633 2.75087 42.4397 2.69087C42.2143 2.60475 41.9934 2.48546 41.7726 2.36722C41.6084 2.77663 41.4488 3.1511 41.2486 3.62581C40.8625 3.18428 40.4924 2.81369 40.1259 2.41663C40.0817 2.35522 40.0108 2.29593 39.9261 2.33405C39.1506 2.5804 38.3934 2.88322 37.7127 3.57887C37.2204 4.06734 36.8222 4.63734 36.4475 5.23099C36.4165 5.2624 36.4079 5.32381 36.3727 5.38558C36.5714 5.47381 36.7659 5.59381 36.9647 5.68346C37.0131 5.71381 37.1014 5.65063 37.1324 5.61887C37.2913 5.42934 37.4284 5.2084 37.588 5.0171C37.6236 4.95358 37.6856 4.88934 37.7429 4.85652C38.3592 4.42734 38.9497 3.9911 39.5371 3.57922C39.8196 3.82346 40.1013 4.07087 40.4094 4.32005C40.7168 4.5724 41.0335 4.76122 41.3448 4.98605C41.4631 5.08346 41.5521 5.01428 41.6244 4.8784C41.8417 4.46934 42.023 4.12628 42.1997 3.81569ZM40.7318 19.3878C40.7681 19.5025 40.8091 19.583 40.85 19.6635C40.989 19.9811 41.2287 20.1449 41.4983 20.1007C41.5542 20.0778 41.6408 20.0259 41.6814 19.9267C41.7676 19.6935 41.8282 19.4542 41.8941 19.1796C42.0629 19.47 42.2111 19.7213 42.3796 20.015C42.6602 19.7125 42.844 19.3493 42.9363 18.8919C43.1415 18.0166 43.2081 18.1027 42.5872 17.6552C41.9396 17.2102 41.2208 17.0782 40.4874 17.0485C40.0158 17.0305 39.5763 17.1547 39.1442 17.4145C39.0883 17.4378 39.0228 17.5275 39.0131 17.5938C39.047 17.9086 39.0812 18.2245 39.1403 18.5464C39.2041 18.8362 39.3319 18.8644 39.5186 18.6632C39.6098 18.5789 39.7312 18.4659 39.8481 18.3865C39.8156 18.7973 39.7925 19.1411 39.7904 19.5247C39.7758 19.6264 39.8377 19.7457 39.8837 19.7916C40.1601 20.0683 40.4646 19.9642 40.6303 19.542C40.6866 19.5198 40.7218 19.4566 40.7318 19.3878ZM34.9058 10.1489C35.2624 9.86722 35.6239 9.55099 35.9816 9.26193C36.1607 9.11581 36.331 9.0311 36.5059 8.91428C36.7378 8.76816 36.8126 8.61428 36.7691 8.36193C36.7388 8.20452 36.7039 8.07816 36.6733 7.9211C36.6295 7.67052 36.5597 7.42063 36.6256 7.14216C36.7267 6.80157 36.8058 6.42957 36.9073 6.08793C36.9515 5.96334 36.9337 5.90158 36.8058 5.87193C36.316 5.7851 35.9552 6.09428 35.8733 6.67381C35.8127 7.10087 35.8049 7.52934 35.797 7.95852C35.8017 8.11205 35.7799 8.26522 35.6093 8.35134C35.4344 8.4671 35.2599 8.58252 35.0811 8.72687C35.0245 8.75475 34.9853 8.84404 34.9767 8.9044C34.9208 9.29652 34.9133 9.72252 34.9058 10.1489ZM36.2989 12.0452C36.2209 12.0371 36.1689 12.0315 36.1386 12.06C35.4629 12.1755 34.8054 12.3498 34.2098 12.8316C34.1496 12.8852 34.0934 12.9085 34.0114 12.9286C33.8736 12.9717 33.8048 13.0846 33.8055 13.2671C33.8066 13.6328 33.7817 13.9952 33.7824 14.3623C33.7913 14.4862 33.7699 14.6358 33.7446 14.8155C34.0232 14.5229 34.2935 14.2878 34.5386 14.0464C34.9436 13.6073 35.3835 13.2918 35.8936 13.0426C35.9499 13.0179 36.0061 12.9936 36.015 12.9311C36.1062 12.6572 36.1764 12.3488 36.2989 12.0452ZM34.7919 14.6764C34.4827 14.8133 34.1995 14.9528 33.9206 15.06C33.8091 15.1024 33.745 15.1836 33.7539 15.3082C33.7329 15.6427 33.7076 16.0077 33.6609 16.338C33.5719 16.9684 33.6185 17.5673 33.7418 18.1867C33.8013 18.138 33.8821 18.1257 33.916 18.0706C34.1076 17.832 34.2697 17.6167 34.4364 17.3697C34.5005 17.2889 34.5179 17.1664 34.5097 17.039C34.5236 16.5703 34.4859 16.0928 34.5251 15.6311C34.5639 15.3565 34.6886 15.0343 34.7919 14.6764ZM34.6277 12.1144C35.1253 11.7668 35.6239 11.412 36.119 11.082C36.3801 10.9158 36.5892 10.7436 36.6163 10.3663C36.6206 10.3349 36.6206 10.3349 36.6512 10.3056C36.7392 10.0589 36.7 9.96181 36.5126 9.98087C36.0945 9.95299 35.6848 10.0497 35.2453 10.1732C34.9407 10.2738 34.7626 10.4129 34.6811 10.8029C34.5956 11.2229 34.5878 11.6503 34.6277 12.1144ZM36.7442 20.9478C36.7164 20.7731 36.7093 20.6379 36.7232 20.5416C36.6904 20.0333 36.6017 19.5466 36.7256 19.0469C36.7349 18.983 36.7438 18.9187 36.7274 18.8489C36.7039 18.6452 36.4432 18.2573 36.311 18.2605C36.1835 18.2319 36.0154 18.4878 35.9495 18.7659C35.9495 18.7659 35.9495 18.7659 35.9449 18.7973C35.942 19.1884 35.9135 19.5735 35.9103 19.9659C35.9014 20.0291 35.9431 20.1057 35.9894 20.1505C36.2206 20.3753 36.4724 20.6411 36.7442 20.9478ZM42.5975 21.6117C42.3792 21.6664 42.1861 21.7267 42.0187 21.7931C41.7954 21.8806 41.6892 22.0716 41.6689 22.3949C41.6436 22.7538 41.6134 23.148 41.5827 23.5426C41.5674 23.6482 41.6483 23.8193 41.6985 23.8342C41.8951 23.9298 42.1021 23.9545 42.2787 24.0071C42.304 24.0145 42.3749 23.8867 42.355 23.8437C42.2905 23.1939 42.4536 22.6095 42.5156 21.9967C42.5566 21.8969 42.5719 21.7899 42.5975 21.6117ZM33.7432 19.8487C33.7981 19.8318 33.828 19.8082 33.8576 19.7845C33.8871 19.7609 33.917 19.7369 33.9466 19.7132C34.1927 19.4605 34.4396 19.2053 34.7078 18.9851C35.0405 18.6812 35.0747 18.6251 34.877 18.1638C34.8602 18.0964 34.8136 18.054 34.7968 17.9866C34.7334 17.8772 34.6825 17.8659 34.597 17.91C34.3669 18.0477 34.1325 18.2146 33.9074 18.3191C33.7671 18.3798 33.729 18.4645 33.7543 18.6583C33.7795 18.8524 33.8045 19.0469 33.8041 19.2353C33.7738 19.4475 33.7731 19.6363 33.7432 19.8487ZM43.275 23.8511C43.4474 23.7498 43.6202 23.6478 43.7623 23.5744C43.8489 23.5229 43.8592 23.4498 43.8802 23.3037C43.877 22.961 43.9244 22.6327 43.9212 22.2907C43.9368 22.1813 43.9379 21.9925 43.8923 21.9431C43.7103 21.7458 43.4716 21.5732 43.2586 21.4073C43.0075 22.2385 43.0253 23.028 43.275 23.8511ZM37.7397 21.9004C37.8484 21.6918 37.9178 21.5743 37.9873 21.4564C38.3004 20.9235 38.279 20.3351 38.0699 19.7715C38.0172 19.5886 37.8484 19.4806 37.7397 19.3197C37.6471 19.2304 37.5869 19.2837 37.5684 19.4136C37.515 19.6027 37.4665 19.7591 37.4131 19.9479C37.3992 20.0453 37.3807 20.1756 37.4174 20.286C37.4726 20.6379 37.5574 20.9651 37.6421 21.2937C37.6742 21.4384 37.6966 21.6495 37.7397 21.9004ZM44.4672 21.0636C44.5149 21.6452 44.4352 22.1969 44.7372 22.6582C44.8761 22.4256 45.0297 22.2731 45.0927 22.0197C45.1451 21.8404 45.1116 21.5245 45.0257 21.3886C44.8893 21.2407 44.6856 21.192 44.4672 21.0636Z" fill="#F26322"/>
<path d="M43.6148 10.8805C43.903 11.2609 44.1277 11.3509 44.4615 11.2327C44.6022 11.1709 44.7326 10.9991 44.8526 10.8988C44.9466 10.7961 45.0143 10.6916 45.1034 10.6246C45.2601 10.452 45.4382 10.3168 45.5899 10.1795C45.5953 10.1432 45.5689 10.1414 45.5742 10.1051C44.9776 10.0338 44.3543 9.96141 43.7523 9.92682C43.4121 9.90741 43.1571 10.2102 43.1439 10.6691C43.0955 11.3742 43.0467 12.0808 43.0235 12.7913C43.0135 12.8615 43.0762 12.9755 43.1229 13.0165C43.3103 13.1806 43.4096 13.4079 43.4723 13.7036C43.483 13.8134 43.5193 13.9264 43.566 13.9684C43.7943 14.2151 44.0479 14.4667 44.3272 14.7244C44.4362 14.5182 44.5762 14.2786 44.6902 14.0351C44.6228 13.9532 44.5555 13.8713 44.5089 13.8289C44.2392 13.5042 43.9015 13.2836 43.7658 12.762C43.7448 12.7239 43.7291 12.6498 43.7031 12.6473C43.4795 12.5524 43.4891 12.3021 43.5557 12.0215C43.566 11.9506 43.571 11.9153 43.555 11.8422C43.5546 11.4836 43.6002 11.1653 43.6148 10.8805ZM40.4856 10.9895C40.4279 11.3919 40.3706 11.7942 40.3129 12.1969C40.284 12.3981 40.1351 12.5185 39.9649 12.6018C39.7946 12.6847 39.5987 12.7641 39.4452 12.9152C39.2354 13.092 39.12 13.3465 39.1032 13.6461C39.0915 13.9133 39.2115 13.9966 39.4113 13.8886C39.5243 13.836 39.6375 13.7831 39.7551 13.6962C39.8163 13.6362 39.9036 13.5791 39.9392 13.5155C40.039 13.1873 40.2395 13.0747 40.4404 12.9611C40.528 12.9025 40.6253 12.7761 40.6395 12.6748C40.824 11.9393 40.9825 11.1999 41.1677 10.4608C41.2782 10.0574 41.1339 9.77541 40.8197 9.75741C40.5579 9.74223 40.2701 9.72565 40.0083 9.71082C39.6942 9.69282 39.3754 9.70729 39.0042 9.71859C39.0427 9.81953 39.0594 9.88623 39.0808 9.92047C39.2742 10.23 39.4623 10.5752 39.6856 10.8586C39.7925 11.0344 39.9488 11.0471 40.1362 11.0287C40.2505 10.9708 40.3549 10.9793 40.4856 10.9895ZM38.7841 8.30435C38.8414 8.27365 38.903 8.21082 38.9604 8.18012C39.2884 7.73223 39.7301 7.41317 40.1462 7.08953C40.2035 7.05706 40.2751 6.92541 40.2537 6.89188C40.2292 6.69317 40.2096 6.462 40.0963 6.33035C39.7437 5.84082 39.1923 5.81435 38.6523 6.26894C38.2989 6.52517 38.1561 6.97094 38.2861 7.35635C38.3623 7.74282 38.5315 8.03717 38.7841 8.30435ZM47.0229 7.01929C47.2363 5.90929 46.6172 5.62165 46.0669 5.77376C45.7388 5.84929 45.2754 6.49976 45.2081 6.9667C45.1977 7.0387 45.2348 7.14706 45.2825 7.18341C45.6519 7.36941 45.9418 7.73859 46.142 8.18294C46.2418 8.40635 46.3732 8.41059 46.4996 8.26659C46.6207 8.15894 46.7212 8.01353 46.8003 7.83035C46.9217 7.5367 46.9591 7.278 47.0229 7.01929ZM44.4398 15.9586C44.4031 16.2124 44.3771 16.3934 44.3511 16.5745C44.3407 16.6468 44.3764 16.7643 44.4227 16.8092C44.864 17.2214 45.2993 17.6756 45.7388 18.0985C45.8307 18.192 45.9226 18.2859 46.0145 18.3801C46.0847 17.8945 46.1495 17.4462 46.225 16.9232C45.6391 16.5988 45.0524 16.2784 44.4398 15.9586ZM43.5532 8.92306C43.8421 8.93506 44.1103 9.08859 44.3771 8.88529C44.4925 8.81823 44.5968 8.64247 44.6912 8.538C44.6015 8.42717 44.5484 8.24647 44.4219 8.20694C44.0479 8.05412 43.6682 7.93835 43.2939 7.78906C43.2412 7.788 43.1884 7.78659 43.1361 7.78553C43.1311 7.82047 43.1047 7.81976 43.0997 7.85435C43.1639 7.96059 43.2013 8.06647 43.27 8.13847C43.5076 8.32165 43.6665 8.50306 43.5532 8.92306ZM40.4992 8.86447C40.7567 8.90894 40.9882 8.9527 41.2194 8.99682C41.2457 8.99788 41.2981 9.00035 41.3291 8.96753C41.5254 8.70282 41.7434 8.47165 41.8876 8.20235C42.0272 7.96623 41.9628 7.86176 41.7473 7.8907C41.3116 7.98141 40.9312 8.24117 40.611 8.63365C40.5757 8.69965 40.5661 8.7667 40.4992 8.86447ZM43.0474 15.7419C43.3106 15.9282 43.5478 16.1121 43.7591 16.2928C43.9603 15.8104 43.9657 15.7747 43.6508 15.5799C43.5268 15.5248 43.4029 15.4698 43.2999 15.4542C43.0623 15.4546 43.0574 15.4902 43.0474 15.7419ZM39.1182 15.5707C39.4042 15.4133 39.6553 15.3166 39.9421 15.1556C39.6258 14.9707 39.3583 14.9979 39.0651 15.0208C39.0623 15.2234 39.095 15.3639 39.1182 15.5707Z" fill="white"/>
<path d="M42.1999 3.81577C42.0232 4.12636 41.8686 4.46836 41.6923 4.77648C41.615 4.94659 41.5306 4.98224 41.4127 4.88483C41.1013 4.66036 40.7626 4.43977 40.4769 4.21989C40.1688 3.97106 39.8867 3.724 39.6046 3.48012C39.0126 3.92518 38.3996 4.33177 37.8097 4.7613C37.752 4.79448 37.7168 4.858 37.6548 4.92224C37.4956 5.11389 37.3584 5.33518 37.1992 5.52506C37.164 5.58789 37.0535 5.62071 37.0315 5.59C36.8327 5.50036 36.6339 5.41177 36.4395 5.29283C36.4747 5.23071 36.4833 5.1693 36.5143 5.13789C36.8893 4.54318 37.2833 4.00318 37.7802 3.48224C38.4609 2.78518 39.2185 2.48059 39.9943 2.23283C40.0477 2.22895 40.1499 2.25365 40.1941 2.31506C40.5606 2.71177 40.9307 3.08165 41.3172 3.52318C41.5174 3.04777 41.677 2.67295 41.8412 2.26283C42.0624 2.38071 42.2832 2.49965 42.509 2.58577C42.6326 2.64542 42.7712 2.60271 42.919 2.49118C43.2738 2.22895 43.6193 2.03377 43.9766 1.93883C44.03 1.93495 44.1151 1.89401 44.222 1.88624C44.0083 2.45412 43.698 2.956 43.7465 3.53977C43.9645 3.49459 44.1657 3.38059 44.2811 3.13106C44.4432 2.73895 44.6056 2.34506 44.7413 1.95224C44.8254 1.73659 44.8724 1.59365 45.0441 1.68506C45.0441 1.68506 45.0441 1.68506 45.0708 1.68295C45.1994 1.70801 45.365 1.66036 45.4031 1.76306C45.4412 1.86612 45.3568 2.08353 45.3312 2.26177C45.3105 2.40436 45.3219 2.50953 45.328 2.65036C45.4398 2.60801 45.5467 2.60165 45.6368 2.52506C45.8071 2.44318 46.0251 2.21518 46.2434 1.98612C46.3392 1.87212 46.4247 1.83012 46.4942 1.89683C46.9971 2.25895 47.499 2.62812 47.9677 3.04283C48.1327 3.18224 48.0732 3.59271 47.8869 3.78577C47.5464 4.1313 47.1745 4.14436 46.85 3.82812C46.5465 3.55106 46.2213 3.42189 45.822 3.44095C45.6624 3.44871 45.4605 3.56483 45.307 3.71377C45.1267 3.86342 44.9949 4.04553 44.8364 4.228C44.5832 4.51848 44.2925 4.70306 43.9588 4.81706C43.6254 4.93 43.2873 5.07683 42.9493 5.22189C42.7541 5.29424 42.7274 5.29495 42.7089 5.05565C42.753 4.74683 42.7976 4.43765 42.8367 4.16306C42.8563 4.02577 42.8346 3.99259 42.7334 3.96259C42.5525 3.93577 42.3762 3.87577 42.1999 3.81577Z" fill="white"/>
<path d="M40.7313 19.3879C40.6961 19.4507 40.6861 19.5196 40.6508 19.5824C40.4848 20.0049 40.1803 20.109 39.9042 19.8319C39.8583 19.786 39.7963 19.6664 39.8109 19.5647C39.8084 19.2146 39.8362 18.837 39.8686 18.4258C39.7518 18.5052 39.6303 18.6181 39.5391 18.7025C39.3268 18.898 39.2246 18.8754 39.1609 18.5857C39.0967 18.2966 39.0679 17.9476 39.0337 17.6324C39.0383 17.5992 39.1039 17.5096 39.1648 17.4531C39.5972 17.1933 40.062 17.074 40.508 17.0874C41.2414 17.1178 41.9602 17.2501 42.6078 17.6956C43.2283 18.1434 43.167 18.0217 42.9565 18.933C42.8692 19.3551 42.6804 19.7536 42.3997 20.056C42.2313 19.762 42.0831 19.5107 41.9143 19.2199C41.8231 19.4889 41.7878 19.7341 41.7016 19.9674C41.666 20.0313 41.6001 20.1245 41.5185 20.1414C41.2232 20.1796 41.0092 20.0214 40.8702 19.7038C40.8086 19.5831 40.7979 19.474 40.7313 19.3879Z" fill="white"/>
<path d="M34.9058 10.1488C34.909 9.75242 34.9207 9.29642 34.9546 8.87254C34.9631 8.81218 35.024 8.7543 35.0589 8.69501C35.2335 8.58065 35.4126 8.43524 35.5872 8.31912C35.7578 8.23301 35.7489 8.10983 35.7749 7.92665C35.7827 7.49783 35.7906 7.06971 35.8511 6.64265C35.933 6.06313 36.2896 5.78501 36.7836 5.84042C36.8851 5.87042 36.9072 5.90112 36.8851 6.05642C36.784 6.39807 36.7046 6.77007 36.6034 7.1103C36.5375 7.38842 36.5813 7.63795 36.6515 7.88889C36.6821 8.04595 36.717 8.17195 36.7473 8.32936C36.7861 8.61277 36.7117 8.76665 36.4841 8.88171C36.3092 8.99818 36.1343 9.1143 35.9597 9.22936C35.6239 9.55124 35.2666 9.83677 34.9058 10.1488Z" fill="white"/>
<path d="M36.2987 12.0453C36.2025 12.3516 36.1063 12.6569 35.9888 12.9276C35.9799 12.9898 35.898 13.0113 35.8677 13.0388C35.3622 13.2573 34.9177 13.6032 34.5127 14.0419C34.2634 14.3133 34.019 14.5522 33.7188 14.8102C33.7184 14.6263 33.7351 14.5067 33.7565 14.357C33.7814 13.9942 33.7804 13.6282 33.7793 13.2626C33.7747 13.1101 33.8431 12.9972 33.9852 12.9245C34.0411 12.9012 34.1273 12.851 34.1836 12.8274C34.7749 12.3763 35.4367 12.172 36.1124 12.0566C36.1687 12.0319 36.1947 12.0343 36.2987 12.0453Z" fill="white"/>
<path d="M34.7917 14.6765C34.6884 15.0344 34.5637 15.3566 34.5459 15.6658C34.5067 16.1278 34.5445 16.6057 34.5306 17.0747C34.5174 17.1665 34.4961 17.3193 34.4572 17.4058C34.2905 17.6529 34.0985 17.8929 33.9368 18.1067C33.9026 18.1615 33.8221 18.1742 33.7627 18.2229C33.6398 17.6031 33.597 16.9742 33.6821 16.3731C33.7288 16.0427 33.7541 15.6775 33.7751 15.3429C33.7922 15.2229 33.8307 15.1371 33.9418 15.0947C34.1993 14.9525 34.4825 14.8135 34.7917 14.6765Z" fill="white"/>
<path d="M34.6272 12.1144C34.5831 11.6806 34.5909 11.2532 34.681 10.8032C34.7583 10.4432 34.9407 10.2738 35.2452 10.1736C35.6588 10.0483 36.0944 9.95333 36.5126 9.98121C36.7217 9.99497 36.7605 10.0924 36.6511 10.3059C36.6469 10.3373 36.6205 10.3352 36.6162 10.3666C36.5892 10.7436 36.3537 10.9137 36.119 11.082C35.6235 11.412 35.1248 11.7667 34.6272 12.1144Z" fill="white"/>
<path d="M36.7438 20.9477C36.4716 20.641 36.2202 20.3756 35.9936 20.1187C35.9473 20.0738 35.9309 20.0039 35.9146 19.9341C35.9178 19.5419 35.9463 19.1565 35.9491 18.7658C35.9491 18.7658 35.9491 18.7658 35.9537 18.7344C36.0196 18.4563 36.1831 18.2322 36.3153 18.229C36.4684 18.2629 36.7338 18.619 36.7317 18.817C36.7481 18.8869 36.7388 18.9511 36.7299 19.015C36.5806 19.5088 36.6946 20.0015 36.7274 20.5097C36.7092 20.6375 36.7163 20.773 36.7438 20.9477Z" fill="white"/>
<path d="M42.5974 21.6118C42.5718 21.7901 42.5614 21.8613 42.5461 21.9683C42.4841 22.581 42.321 23.1658 42.3855 23.8159C42.3805 23.8516 42.3345 23.9871 42.3092 23.9793C42.1073 23.9193 41.9003 23.8946 41.729 23.8068C41.6784 23.7916 41.5979 23.6208 41.6132 23.5152C41.6132 23.1485 41.6692 22.7613 41.6994 22.3671C41.7197 22.0438 41.8259 21.8529 42.0492 21.765C42.2063 21.7689 42.3741 21.7022 42.5974 21.6118Z" fill="white"/>
<path d="M33.7431 19.8487C33.7477 19.6295 33.7737 19.4474 33.7741 19.2589C33.7745 19.0704 33.7748 18.8823 33.7242 18.6822C33.6947 18.5188 33.7118 18.3977 33.8774 18.343C34.1029 18.2389 34.3369 18.0723 34.567 17.9347C34.6568 17.8595 34.7333 17.8768 34.7668 18.0113C34.7836 18.0787 34.8302 18.121 34.847 18.1884C35.0447 18.6497 35.0357 18.7119 34.6778 19.0094C34.4096 19.2296 34.1631 19.4844 33.9169 19.7368C33.8874 19.7604 33.8575 19.7844 33.8279 19.8081C33.8532 19.8148 33.8236 19.8384 33.7431 19.8487Z" fill="white"/>
<path d="M43.2746 23.8511C43.0249 23.0281 42.9815 22.2318 43.2582 21.4077C43.4969 21.5796 43.7099 21.7462 43.8919 21.9435C43.9375 21.9929 43.9364 22.1817 43.9207 22.2911C43.8987 22.6261 43.8766 22.9614 43.8798 23.3041C43.8894 23.4209 43.8734 23.5303 43.7619 23.5748C43.6198 23.6478 43.4474 23.7498 43.2746 23.8511Z" fill="white"/>
<path d="M37.74 21.9004C37.6969 21.6491 37.6698 21.4712 37.647 21.2608C37.5623 20.9323 37.4821 20.5726 37.4223 20.2532C37.4109 20.1491 37.3995 20.0453 37.418 19.9154C37.4711 19.7266 37.5199 19.5703 37.5733 19.3811C37.6175 19.2568 37.652 19.1979 37.7446 19.2868C37.8579 19.415 37.9968 19.5498 38.0752 19.7386C38.2843 20.3019 38.3053 20.8903 37.9925 21.4236C37.9181 21.5743 37.8486 21.6918 37.74 21.9004Z" fill="white"/>
<path d="M44.4668 21.0635C44.6851 21.1919 44.8889 21.2407 45.0456 21.4319C45.1368 21.5308 45.1646 21.8841 45.1122 22.0634C45.0545 22.2797 44.8957 22.4692 44.7567 22.7018C44.4347 22.1964 44.4889 21.6388 44.4668 21.0635Z" fill="white"/>
<path d="M43.6148 10.8806C43.5952 11.2007 43.5546 11.4834 43.5396 11.7686C43.5293 11.8392 43.5503 11.8769 43.5403 11.9479C43.4737 12.2285 43.4691 12.4434 43.6878 12.5733C43.7138 12.5758 43.7555 12.6523 43.7505 12.688C43.8605 13.2061 44.1929 13.462 44.4939 13.7535C44.5612 13.8351 44.6078 13.8774 44.6752 13.9593C44.5352 14.1996 44.4208 14.4425 44.3122 14.6486C44.0329 14.3916 43.805 14.1435 43.5507 13.894C43.504 13.852 43.4726 13.7038 43.457 13.6296C43.4199 13.3371 43.2949 13.1069 43.1072 12.9432C43.0602 12.9022 43.0235 12.7914 43.0078 12.7183C43.0306 12.0082 43.1054 11.3045 43.1282 10.5972C43.1624 10.1751 43.4224 9.83693 43.7626 9.85599C44.3649 9.88987 44.9879 9.96152 45.5849 10.0321C45.5795 10.0685 45.6059 10.0699 45.6006 10.1066C45.4488 10.2442 45.2657 10.4161 45.114 10.5523C45.0253 10.6194 44.9519 10.7602 44.8632 10.8269C44.7379 10.9635 44.6075 11.1354 44.4721 11.1615C44.1277 11.3511 43.9083 11.2254 43.6148 10.8806Z" fill="#F26322"/>
<path d="M40.4858 10.9895C40.3555 10.9793 40.2461 11.0043 40.1418 10.9959C39.9544 11.0146 39.8027 10.9687 39.6912 10.8261C39.4725 10.5095 39.2794 10.1979 39.0863 9.88833C39.065 9.8541 39.0479 9.78739 39.0098 9.68645C39.3809 9.6748 39.6951 9.69315 40.0139 9.67798C40.2757 9.6928 40.5639 9.70939 40.8257 9.72421C41.1398 9.74221 41.2841 10.0239 41.1737 10.4273C40.9884 11.1663 40.8299 11.9061 40.6454 12.6413C40.6308 12.7426 40.5336 12.8689 40.4463 12.9275C40.2194 13.0383 40.0139 13.1844 39.9451 13.482C39.9355 13.5487 39.8222 13.6027 39.761 13.6627C39.6431 13.7492 39.5348 13.7689 39.4169 13.855C39.2167 13.9634 39.097 13.8801 39.1088 13.6129C39.1252 13.3133 39.2406 13.0588 39.4507 12.8816C39.5993 12.7637 39.8002 12.6512 39.9704 12.5682C40.1407 12.4846 40.2589 12.3953 40.3184 12.163C40.3704 11.7942 40.4281 11.3919 40.4858 10.9895Z" fill="#F26322"/>
<path d="M38.7839 8.30442C38.5577 8.0383 38.3668 7.71112 38.2589 7.35606C38.1335 6.93924 38.298 6.52524 38.625 6.26936C39.1607 5.84724 39.7164 5.84159 40.069 6.33077C40.156 6.46242 40.1755 6.69359 40.2265 6.89195C40.2436 6.9583 40.1766 7.05677 40.1189 7.08924C39.7029 7.41289 39.2875 7.7323 38.9335 8.17948C38.9029 8.21053 38.8409 8.27371 38.7839 8.30442Z" fill="#F26322"/>
<path d="M47.0225 7.01929C46.9588 7.27799 46.916 7.57376 46.8312 7.79435C46.7835 7.94152 46.6517 8.12329 46.5306 8.23094C46.3778 8.37423 46.2727 8.37105 46.173 8.14729C45.9732 7.70294 45.6829 7.33376 45.3135 7.14811C45.2658 7.11141 45.2287 7.00305 45.239 6.93105C45.3014 6.49976 45.7434 5.81329 46.0982 5.73705C46.6168 5.62164 47.2359 5.90929 47.0225 7.01929Z" fill="#F26322"/>
<path d="M44.4395 15.9587C45.0525 16.2789 45.6851 16.6445 46.2707 16.9699C46.1952 17.4933 46.1357 17.9045 46.0652 18.3905C45.9733 18.2963 45.8301 18.1929 45.7382 18.099C45.2986 17.6762 44.858 17.2583 44.422 16.8097C44.3757 16.7649 44.3401 16.6473 44.3504 16.575C44.3508 16.3893 44.4028 16.2122 44.4395 15.9587Z" fill="#F26322"/>
<path d="M43.553 8.92304C43.6663 8.50304 43.5074 8.32162 43.2909 8.17445C43.2221 8.10245 43.1844 7.99657 43.1206 7.88998C43.1256 7.85504 43.152 7.85574 43.1569 7.8208C43.2097 7.82186 43.2624 7.82327 43.3147 7.82433C43.6944 7.93868 44.0738 8.0548 44.4428 8.24327C44.5429 8.2821 44.6223 8.46386 44.7121 8.57468C44.6177 8.67915 44.5183 8.81892 44.3979 8.92198C44.1101 9.08857 43.8419 8.93504 43.553 8.92304Z" fill="#F26322"/>
<path d="M40.499 8.86443C40.5396 8.76525 40.5752 8.6996 40.6376 8.63501C40.9578 8.24219 41.3382 7.98243 41.7738 7.89172C41.994 7.82854 42.0535 7.96725 41.9138 8.20337C41.7432 8.47195 41.5466 8.73807 41.3553 8.9689C41.3243 9.00172 41.298 9.00031 41.2456 8.99819C41.0141 8.95407 40.7566 8.90925 40.499 8.86443Z" fill="#F26322"/>
<path d="M43.0474 15.7418C43.0623 15.4545 43.0933 15.4231 43.2996 15.4542C43.4285 15.4736 43.5574 15.493 43.6504 15.5798C43.9703 15.7383 43.9856 15.8142 43.7587 16.2924C43.5218 16.1078 43.2846 15.9243 43.0474 15.7418Z" fill="#F26322"/>
<path d="M39.1182 15.5707C39.095 15.3639 39.0623 15.2234 39.0651 15.0208C39.3583 14.9979 39.6564 14.9411 39.9421 15.1557C39.6293 15.3127 39.3996 15.4465 39.1182 15.5707Z" fill="#F26322"/>
</g>
</g>
<path d="M44.6543 0.266602C46.5885 0.0667786 48.1883 1.71602 47.9209 3.61426L45.4238 21.2061C45.1709 23.0013 43.353 24.1494 41.5977 23.6201L29.9893 20.1084C29.0274 19.8187 28.405 18.9209 28.4531 17.9443L28.4717 17.748L30.5205 3.38086V3.37988C30.6579 2.4028 31.4532 1.64438 32.4443 1.54004L44.6543 0.266602Z" stroke="#ECECEF" stroke-width="0.5" stroke-miterlimit="10"/>
<mask id="mask6_2693_73755" style="mask-type:luminance" maskUnits="userSpaceOnUse" x="14" y="0" width="21" height="24">
<path d="M18.4171 1.2915L30.6296 0.0180934C32.724 -0.200024 34.4598 1.58586 34.1681 3.65092L31.6693 21.2415C31.3929 23.1897 29.4214 24.4328 27.5218 23.8596L15.9183 20.3433C14.7714 19.9981 14.0597 18.8821 14.2236 17.71L16.2717 3.34633C16.4252 2.25045 17.3161 1.40798 18.4171 1.2915Z" fill="white"/>
</mask>
<g mask="url(#mask6_2693_73755)">
<mask id="mask7_2693_73755" style="mask-type:luminance" maskUnits="userSpaceOnUse" x="13" y="-1" width="22" height="27">
<path d="M16.5216 1.48786L34.7845 -0.413086L31.1028 25.0079L13.9541 19.8479L16.5216 1.48786Z" fill="white"/>
</mask>
<g mask="url(#mask7_2693_73755)">
<path d="M34.7845 -0.413086L16.5216 1.48786L13.9541 19.8479L31.1028 25.0079L34.7845 -0.413086Z" fill="#00965E"/>
<path d="M29.1751 6.94953C28.0909 7.69318 27.7917 7.75529 26.5977 8.53247C27.3229 7.71082 27.6132 7.34341 28.0898 6.59871C27.1031 6.66294 25.6591 6.78823 24.5884 7.07059C25.569 6.49353 27.4084 5.82259 28.3591 5.64224C28.2009 5.27059 26.6226 4.11506 26.2301 3.90259C27.594 3.97565 29.1965 4.59576 29.9285 5.20176C30.2669 5.05459 30.6113 5.04682 31.2051 4.96212C30.9946 5.32247 30.9636 5.53671 30.31 6.03965C30.3869 6.60541 29.5295 9.80765 29.0943 10.6304C29.3019 9.37106 29.4387 7.68718 29.1751 6.94953Z" fill="white"/>
<path d="M20.6176 16.8084C20.1143 16.4572 19.7428 16.106 19.4002 15.5505C19.5879 15.1555 19.7888 14.8524 20.0801 14.4694C19.6292 14.4895 19.2858 14.4955 18.8912 14.492C18.6689 13.8278 18.6005 13.1921 18.5603 12.3574C18.3597 13.2186 18.2179 13.849 18.2486 14.5661C17.8721 14.6215 17.6281 14.6688 17.2993 14.7588C17.6701 15.1178 17.9754 15.3807 18.3789 15.6945C18.5268 16.3255 18.7245 16.79 19.066 17.3519C19.0187 16.9432 19.0393 16.6114 19.1494 16.2059C19.632 16.5165 20.0545 16.6947 20.6176 16.8084Z" fill="white"/>
<path d="M23.3696 7.65552C23.1452 7.93364 22.8898 8.42846 22.8065 8.64481C24.2181 8.92893 25.2365 9.93022 25.2365 9.93022C24.0172 9.59599 23.3586 9.58963 22.8827 9.59352C22.4029 9.62775 22.3153 9.68528 22.3153 9.68528C21.8526 10.5274 21.4301 12.015 21.4301 12.015C21.2873 11.3483 21.1559 10.0432 21.1559 10.0432C20.4734 10.3898 18.7979 11.7927 18.7979 11.7927C19.8586 10.0725 20.7879 9.28787 20.7879 9.28787C20.5464 8.94269 19.8333 8.75916 19.3129 8.70587C19.6182 8.6014 20.3477 8.48316 20.903 8.47505C21.4586 8.46658 21.7913 8.54105 21.7913 8.54105C22.3078 8.06528 23.1281 7.68164 23.3696 7.65552Z" fill="white"/>
<path d="M23.7119 16.1687C23.3953 16.5414 23.1441 16.8241 22.8075 17.1527C22.3242 17.2187 21.9313 17.2032 21.4707 17.1089C21.7254 17.3542 21.9933 17.5074 22.2611 17.6613C21.9096 17.9108 21.6442 18.1113 21.3325 18.2666C21.8351 18.2511 22.4834 18.1342 23.0188 17.8879C23.2741 17.9422 23.5042 17.9913 23.667 17.9592C23.6439 17.7538 23.6368 17.6186 23.6435 17.3863C24.1393 17.0493 24.534 16.6865 24.9593 16.2898C24.5223 16.5831 24.1511 16.7832 23.6524 16.9551C23.6332 16.7189 23.6656 16.4923 23.7119 16.1687Z" fill="white"/>
</g>
</g>
<path d="M30.6543 0.266602C32.5885 0.0667786 34.1883 1.71602 33.9209 3.61426L31.4238 21.2061C31.1709 23.0013 29.353 24.1494 27.5977 23.6201L15.9893 20.1084C15.0274 19.8187 14.405 18.9209 14.4531 17.9443L14.4717 17.748L16.5205 3.38086V3.37988C16.6579 2.4028 17.4532 1.64438 18.4443 1.54004L30.6543 0.266602Z" stroke="#ECECEF" stroke-width="0.5" stroke-miterlimit="10"/>
<mask id="mask8_2693_73755" style="mask-type:luminance" maskUnits="userSpaceOnUse" x="0" y="0" width="21" height="24">
<path d="M4.41707 1.2915L16.6296 0.0180934C18.724 -0.200024 20.4598 1.58586 20.1681 3.65092L17.6693 21.2415C17.3929 23.1897 15.4214 24.4328 13.5218 23.8596L1.91835 20.3433C0.771397 19.9981 0.0597168 18.8821 0.223567 17.71L2.2717 3.34633C2.42522 2.25045 3.31606 1.40798 4.41707 1.2915Z" fill="white"/>
</mask>
<g mask="url(#mask8_2693_73755)">
<path d="M2.52156 1.48786L20.7845 -0.413086L17.1028 25.0079L-0.0458984 19.8479L2.52156 1.48786Z" fill="#D00040"/>
<path d="M14.3514 4.96141L7.66844 5.12694C6.58097 5.15377 5.57008 6.13706 5.4016 7.33177L4.36115 14.7036C4.19659 15.8691 4.90435 17.0105 5.95193 17.2339L14.2834 19.0106L15.9382 7.52094C16.1463 6.07565 15.4389 4.93424 14.3514 4.96141ZM11.7718 14.4809L7.63816 13.8922C7.14732 13.8224 6.95391 13.3275 7.01446 12.9001C7.07501 12.4727 7.39986 12.0428 7.89355 12.0958L12.0496 12.5426C12.5433 12.5955 12.73 13.1313 12.662 13.6053C12.5633 14.1104 12.237 14.5473 11.7718 14.4809ZM12.3033 10.7722L8.12686 10.4546C7.63103 10.4168 7.43477 9.93929 7.49568 9.51188C7.55623 9.08447 7.88358 8.63765 8.38225 8.65847L12.5811 8.83424C13.0798 8.85506 13.2693 9.37388 13.2012 9.84788C13.1332 10.3219 12.7731 10.8079 12.3033 10.7722Z" fill="white"/>
<path d="M7.52153 9.51336C7.57781 9.1163 7.90979 8.63877 8.40811 8.65959L12.5806 8.8343C13.0793 8.85512 13.2688 9.37395 13.2007 9.84795C13.1327 10.3219 12.7989 10.8101 12.3028 10.7723L8.12671 10.4547C7.65689 10.419 7.46063 9.94112 7.52153 9.51336Z" fill="#D00040"/>
<path d="M7.03614 12.9341C7.09242 12.537 7.42155 12.0764 7.91524 12.1297L12.045 12.5762C12.5383 12.6295 12.7253 13.1656 12.6573 13.6396C12.5942 14.0797 12.258 14.5844 11.7671 14.5142L7.63348 13.9234C7.17292 13.8263 6.97523 13.3618 7.03614 12.9341Z" fill="#D00040"/>
</g>
<path d="M16.6543 0.266602C18.5885 0.0667786 20.1883 1.71602 19.9209 3.61426L17.4238 21.2061C17.1709 23.0013 15.353 24.1494 13.5977 23.6201L1.98926 20.1084C1.02744 19.8187 0.405032 18.9209 0.453125 17.9443L0.47168 17.748L2.52051 3.38086V3.37988C2.65791 2.4028 3.4532 1.64438 4.44434 1.54004L16.6543 0.266602Z" stroke="#ECECEF" stroke-width="0.5" stroke-miterlimit="10"/>
<rect x="78.2002" y="6" width="12" height="12" rx="2" fill="#E2E2E6"/>
<path d="M80.2002 12.7515V11.2646H83.4391V8H84.9775V11.2646H88.2002V12.7515H84.9775V16H83.4391V12.7515H80.2002Z" fill="#1F1F25"/>
</g>
<defs>
<clipPath id="clip0_2693_73755">
<rect width="90.2" height="24" fill="white"/>
</clipPath>
</defs>
</svg>
